Simulation
nRows=43
nColumns=15
endheader
time  TH_x TH_y TH_z SC_y  SC_z  SC_x  AC_y  AC_z  AC_x  GH_y  GH_z  GH_yy  EL_x  PS_y
0.0  0.000000  0.000000  0.000000  -21.481837363305974  5.049547332879065  0.3347068766571287  39.8801629908423  -0.7162288790857129  -10.871941742883562  60.84129793185518  14.319765009815885  -6.859916261152956  20.812259666505103  120.000000
0.04802000000000001  0.000000  0.000000  0.000000  -23.689567427632632  5.066873388359489  0.25368651349953214  42.2124677909535  0.5250493893254613  -8.721797674805487  54.147734865585235  12.27861214679769  -1.187300814309406  20.268785556702476  120.000000
0.09604000000000001  0.000000  0.000000  0.000000  -25.62315668973545  5.15183943262293  0.27304858115417824  44.41659284093585  1.7502411685835952  -6.742961282371769  45.84674780804833  10.816872813674346  5.951526004860886  19.70950753086967  120.000000
0.14406000000000002  0.000000  0.000000  0.000000  -27.251334240344555  5.318576774960974  0.28925990024969644  46.32310084144617  2.8899886109710575  -5.011543024159834  36.233178003463216  9.977899275267697  14.190815629596042  19.09585119183891  120.000000
0.19208000000000003  0.000000  0.000000  0.000000  -28.742106393010157  5.579588364678685  0.27791548750811973  47.82558873993472  3.898290122217816  -3.5025626523740634  26.610054748962124  9.782116428903768  22.183962185578444  18.424278962177173  120.000000
0.24010000000000004  0.000000  0.000000  0.000000  -30.167608065922384  5.957061734933381  0.24107212704146663  48.96325678806764  4.7865997098063575  -2.207420037138798  18.56561605849219  10.167355900700032  28.345042951598483  17.709326287582183  120.000000
0.28812000000000004  0.000000  0.000000  0.000000  -31.590112174474445  6.462502624662246  0.20641208864037458  49.7642481891312  5.58114796838671  -1.0910653128577978  12.725397543667693  10.998358353820766  32.074249420485394  16.967426554906183  120.000000
0.33614000000000005  0.000000  0.000000  0.000000  -33.01881989001376  7.083412564241237  0.21434348312966203  50.27043170819558  6.315165464698455  -0.12306070644964479  8.854934782556917  12.165356777811402  33.63926294405512  16.209049716196965  120.000000
0.38416000000000006  0.000000  0.000000  0.000000  -34.4527642292957  7.810344754940056  0.2986464276596204  50.53560372415995  7.009933329736234  0.7184618453792561  6.408266487546516  13.602351813406395  33.61992932726962  15.452129847093182  120.000000
0.43218000000000006  0.000000  0.000000  0.000000  -35.873779193871435  8.615166291013077  0.48376048440411595  50.599185715744575  7.672256544841824  1.4494526324049881  4.786836982849631  15.269900721645785  32.65287350154603  14.708972787496393  120.000000
0.48020000000000007  0.000000  0.000000  0.000000  -37.26689336250897  9.477588499130144  0.7826824875772515  50.503467841627504  8.294440047370703  2.0852554524911806  3.578699159174148  17.148661403862754  31.196109423824097  13.99596685288301  120.000000
0.5282200000000001  0.000000  0.000000  0.000000  -38.61331016229577  10.371050154638972  1.193759438093109  50.28857455144915  8.861948488732605  2.639996315891137  2.532041793884517  19.226352606543756  29.55320710953041  13.324221814537358  120.000000
0.5762400000000001  0.000000  0.000000  0.000000  -39.903801270772775  11.271726044306053  1.7029061564412808  49.99764993748106  9.356818512196803  3.128901883778763  1.544246508145822  21.492718354261008  27.87967762948639  12.703128043387634  120.000000
0.62426  0.000000  0.000000  0.000000  -41.12758312022503  12.152873126091684  2.286354965456319  49.67357661689153  9.766194221677337  3.5646538199562143  0.5922811063273474  23.93215101883861  26.24537989318636  12.136923634966923  120.000000
0.6722800000000001  0.000000  0.000000  0.000000  -42.28022568081572  12.991710217919035  2.9123866147195416  49.35788482532881  10.088683320513645  3.961400878175134  -0.2961193685329093  26.522508397332516  24.65637817688422  11.626753614660961  120.000000
0.7203000000000002  0.000000  0.000000  0.000000  -43.355949917575224  13.765378870868417  3.5480122099389506  49.08474149482675  10.336823058055387  4.332287822403198  -1.0829262873531793  29.23347172466404  23.089057081872365  11.16589166315533  120.000000
0.7683200000000001  0.000000  0.000000  0.000000  -44.35334282929462  14.455944817411547  4.168720252081032  48.881719749850895  10.531754657356363  4.686508130191043  -1.7297596248365574  32.02871815377522  21.49981714841359  10.740512799559504  120.000000
0.8163400000000001  0.000000  0.000000  0.000000  -45.26984096267578  15.047787453749468  4.761788944528367  48.76441208000941  10.699565607824043  5.0293324481133  -2.214039936964442  34.86897550977037  19.845403723803575  10.329151595746016  120.000000
0.8643600000000001  0.000000  0.000000  0.000000  -46.10574202917015  15.532066947366788  5.3209079341390435  48.738646056600686  10.868423250315656  5.364007009147203  -2.529428699745228  37.71604595840246  18.093621196029016  9.909740958401677  120.000000
0.9123800000000002  0.000000  0.000000  0.000000  -46.85957337148389  15.90520827758442  5.841377057036391  48.79763568940548  11.064606966659245  5.693506749563427  -2.689951299011523  40.53581106980315  16.236358164974217  9.465543685765095  120.000000
0.9604000000000001  0.000000  0.000000  0.000000  -47.53114158258589  16.17127139843185  6.315807695926398  48.92547478624221  11.307231945390267  6.019609533733707  -2.7263284219052535  43.29986794739844  14.294947116197692  8.994409135311754  120.000000
1.00842  0.000000  0.000000  0.000000  -48.11779090502555  16.339968799348465  6.731486101679896  49.098226478157535  11.606056641220075  6.34219567323645  -2.682989937603862  45.98336745541688  12.319348952830447  8.509812447826453  120.000000
1.0564400000000003  0.000000  0.000000  0.000000  -48.617895002719706  16.42565090967043  7.07140462211693  49.28901809017874  11.960382304081694  6.6596475482950614  -2.6087606157542345  48.56331778766859  10.377998556769791  8.037031231189767  120.000000
1.1044600000000002  0.000000  0.000000  0.000000  -49.029077795051315  16.444130610290905  7.314088242371271  49.472502059690584  12.362186101412373  6.969693055494062  -2.5501494958379314  51.015790496074146  8.545712178921178  7.605013468298082  120.000000
1.1524800000000002  0.000000  0.000000  0.000000  -49.3520460554164  16.41048609115683  7.439440315865281  49.62974744555899  12.796380209549005  7.269414537524406  -2.543719273081399  53.315174947309266  6.89086906447332  7.239747327385126  120.000000
1.2005000000000001  0.000000  0.000000  0.000000  -49.588861984000204  16.337549048223572  7.433304051724453  49.751618370273086  13.241281189463933  7.55232576881929  -2.612537248703441  55.43413330912972  5.467830160320652  6.960389441756353  120.000000
1.24852  0.000000  0.000000  0.000000  -49.744605082990795  16.234718425551065  7.289693992612008  49.83909809435035  13.67357162006149  7.811625020526618  -2.7660240520252994  57.34599356642042  4.313106653101498  6.778710367596948  120.000000
1.2965400000000002  0.000000  0.000000  0.000000  -49.82594033180888  16.110068782921516  7.010158406415349  49.89879607195213  14.073312485391927  8.04324122064044  -3.003103388663838  59.03015213806277  3.445124104748429  6.699839682677501  120.000000
1.3445600000000002  0.000000  0.000000  0.000000  -49.841550198098844  15.971380183194551  6.605783780940993  49.93831557200641  14.427185166802872  8.248136824981897  -3.313784135769792  60.47581658001975  2.862553228185618  6.720649160906434  120.000000
1.3925800000000002  0.000000  0.000000  0.000000  -49.799364090258806  15.826361856522087  6.098376960332134  49.962936423400954  14.731810848867903  8.431188943142976  -3.681822147330286  61.68128957525082  2.5432744260237987  6.825071600920456  120.000000
1.4406000000000003  0.000000  0.000000  0.000000  -49.711677634418905  15.680973680204563  5.522838172281928  49.97588702352562  14.994053113132681  8.598662869247415  -4.085123225783128  62.652696394044966  2.445437690217193  6.9820048672078565  120.000000
1.4886200000000003  0.000000  0.000000  0.000000  -49.60368441252376  15.539005210803623  4.923336956340502  49.98069763234381  15.23074518860949  8.758106019478848  -4.4941014725932344  63.40068078926793  2.5126552541529024  7.150116025104935  120.000000
1.5366400000000002  0.000000  0.000000  0.000000  -49.500360962251776  15.40482388475843  4.342526398712938  49.976417638360395  15.464252431599093  8.916185271191134  -4.879319049626395  63.93909529087203  2.685770064502786  7.285854859987336  120.000000
1.5846600000000002  0.000000  0.000000  0.000000  -49.40918036365941  15.284441255518955  3.8155930164254492  49.95262805361049  15.713545553905712  9.077164734870587  -5.218677259596554  64.28106321049101  2.915123780648779  7.352499457056932  120.000000
1.6326800000000001  0.000000  0.000000  0.000000  -49.33371045078887  15.183238125998814  3.368582860139083  49.90046974642415  15.987508465422428  9.239587175035094  -5.488204447942749  64.43272299640671  3.165566301450931  7.334827483079453  120.000000
1.6807000000000003  0.000000  0.000000  0.000000  -49.27534440745476  15.10322522785566  3.0161470135085753  49.815873580001586  16.283337822438888  9.39738802125665  -5.659945035752176  64.3858174031597  3.417350851090153  7.2427005595363445  120.000000
1.7287200000000003  0.000000  0.000000  0.000000  -49.23322738660897  15.041080290255868  2.7600028252259974  49.70204499887363  16.589415168782633  9.541216499292753  -5.702972530307658  64.1137749064465  3.6606320388580413  7.106054332010198  120.000000
1.7767400000000002  0.000000  0.000000  0.000000  -49.20448006389644  14.988056519285994  2.589098296951858  49.5719303021417  16.889498234776404  9.660734988272901  -5.587044747296809  63.57353511510266  3.8864379423027255  6.9663920788274165  120.000000
1.8247600000000004  0.000000  0.000000  0.000000  -49.16808737655583  14.932088946862088  2.4799037770324666  49.43984600107744  17.16452770812517  9.745611247686758  -5.296781282077578  62.71111486356791  4.081666141874521  6.867676694911885  120.000000
1.8727800000000003  0.000000  0.000000  0.000000  -49.07533102464844  14.860818875957683  2.3990509879312847  49.31486642299825  17.390445383535074  9.780866240750496  -4.842485566043816  61.4673580533476  4.228947697661346  6.849897316659792  120.000000
1.9208000000000003  0.000000  0.000000  0.000000  -48.887273636109235  14.758648740200739  2.3131380988648855  49.210586563663064  17.539805505290936  9.748537686746214  -4.24069014512693  59.782083532996126  4.304423859540428  6.953098632107031  120.000000
1.9688200000000002  0.000000  0.000000  0.000000  -48.595448322895386  14.608709382131165  2.1883658706526257  49.147448342736546  17.587794053254605  9.628993274164499  -3.497335786199288  57.60192729051703  4.284710364670049  7.215182646325944  120.000000
2.01684  0.000000  0.000000  0.000000  -48.20104373724835  14.39428235269571  1.9895022905161308  49.13497520243581  17.517234679408787  9.409004748009764  -2.6095065431461726  54.89623615074744  4.1639358606434005  7.656663243549398  120.000000
